<?xml version="1.0" encoding="utf-8"?>
<!-- Generator: Adobe Illustrator 24.1.2, SVG Export Plug-In . SVG Version: 6.00 Build 0)  -->
<svg version="1.1" id="Layer_1" xmlns="http://www.w3.org/2000/svg" xmlns:xlink="http://www.w3.org/1999/xlink" x="0px" y="0px"
	 viewBox="0 0 841.9 595.3" style="enable-background:new 0 0 841.9 595.3;" xml:space="preserve">
<style type="text/css">
	.st0{fill:#1D1D1B;}
</style>
<g>
	<path class="st0" d="M489.4,290.5c15,80.4-29.8,123.9-92,129.8c-49.5,4.7-92.1-34.3-100.7-80.2C282.4,263,329,215.9,391.4,210
		C441.2,205.3,480.9,244.4,489.4,290.5 M420,254.3c-3.8-20.7-10.2-33.8-26.5-32.3c-38.2,3.6-30.6,123.9-23.6,161.3
		c3.8,20.5,10.9,27.5,26.2,26C434.5,405.7,427.6,295.1,420,254.3"/>
	<path class="st0" d="M275.1,263.4c0,0,0-0.1,0-0.1l0,0c-5.3-18.4-13.6-33.4-23.8-45.4c-12.3-12.9-29.3-27.6-48.1-35.9
		c-80.2-42.1-166-23.8-167.1-23.6l12.8,198.2l-0.3,0l1.6,27.5c0,0,3.3,51.3-30.8,63.3c-1.9,0.6-4,1.1-6,1.6
		c-1.2,0.2-2.4,0.4-3.7,0.6l0.5,3.9c7.9-0.1,15.4-0.5,22.5-1.1c0.9-0.1,1.7-0.2,2.6-0.3c1.9-0.2,3.8-0.4,5.7-0.6
		c3.6-0.4,7-0.9,10.4-1.5c1.3-0.2,2.6-0.5,3.9-0.7c11-2.1,21-4.9,29.8-8.3c6.2-2.1,14.4-5.5,21.8-11.2c0.7-0.6,1.4-1.1,2.1-1.7
		c4.4-3.7,8.3-8.2,11.2-13.7c6.7-11.3,10.8-26.1,13.2-41.9c7-46-0.5-100.2-0.5-100.2l-5.8-51.8l-0.1-1.3l-0.2-3.9
		c-0.2-21.8,11.3-26.9,22.2-27.4c34.5-1.6,48.4,19.3,55.1,59.5c0,0,0,0.1,0,0.1c0.6,4.2,1.1,8.3,1.6,12.2
		C217.3,352.4,196,384,196,384c-6,12.1-14.9,22.3-27,29.9l0,0c-13.1,8.1-29.3,11.3-39.6,12.6c-4.2,0.5-7.5,0.7-9.1,0.8
		c-0.8,0-1.2,0-1.2,0v1.1v2.5c1.7,0.1,3.4,0.2,5,0.3c23.3,1,43.3-1.8,52.9-3.5c69-10.6,97-48.3,102.4-92.5
		C280.8,324.5,280.5,282.6,275.1,263.4"/>
	<path class="st0" d="M841.9,449.6c-1.3-0.1-2.5-0.3-3.7-0.6c-2-0.5-4.1-1-6-1.6c-34.1-12-30.8-63.3-30.8-63.3l1.6-27.5l-0.3,0
		l12.9-198.9c0,0-18.9-6-50.4-1.1c-4.8,0.6-9.9,1.5-15.2,3.1c-0.9,0.2-1.7,0.4-2.6,0.6l0,0.2c-0.5,0.2-1,0.3-1.5,0.5l0,0
		c-37.9,10.1-59.6,55.5-68.3,78.1c-3,7.8-4.5,13-4.5,13s1.5-6.6,1.6-15.4c0.1-9.4-1.6-21.3-8.6-30.1c-3.7-4.7-9.5-8.6-16.8-10.8
		c-2.6-0.8-5.4-1.3-8.4-1.7c-3.3-0.3-6.7-0.4-10.3,0c-4.5,0.4-9.2,1.4-14.1,3.1c-10.9,5.3-18.6,12.4-22.6,16.7
		c-8.5,7.6-12.1,16.5-16.8,25.5c3.6-16.1-3.4-21.5-3.4-21.5c-1.8-2.3-5.1-3.4-8.5-3.9c-5-0.7-10.1-0.1-10.1-0.1l-38.9,2.7l-5.9,0.3
		l0,0.1l0,0l0,0l-2.2,58.6c-0.3,1.8-1.1,58.6,0.7,61.9c5.5,30.6,22.8,57.5,58.2,73.4c20.5,9.2,47.1,14.7,81.1,15.2l-0.6-5
		c-28.5-6.3-46.3-21.4-56.5-41.6h0c0,0-5.4-8-9.3-27.8c-3.6-18.5-6-47.2-1.4-89.3c3.6-19,8.9-26.4,16.4-28.8c4.7-0.8,14,0,15.8,18.8
		c0.1,3.1,0.1,6.5,0,10.3c-2.4,44.7,7.4,69.4,19.1,83.1c1.3,2.1,12.6,18.4,47.5,20.4c-12.5-24.5-2.2-70.8,2.5-88.8
		c2.6-10.6,5.2-18.8,6.4-22.2c1.4-4.5,2.8-8.1,3.9-10.7c0.3-0.6,0.5-1.1,0.8-1.7c1.2-2.6,2.6-4.8,4.1-6.6v0.1
		c2.2-2.8,4.8-4.5,7.6-5.4c0.1,0,0.2-0.1,0.3-0.1c2-0.3,4.8-0.3,7.6,1.2c0,0,0,0,0.1,0c0.1,0.1,0.2,0.2,0.4,0.3
		c4,2.9,6.9,9.3,6.9,19.5c0,1.8-0.1,3.7-0.2,5.7l-0.8,14.9v0c0,0-5.2,37.4-3,76.5c1.4,24,5.6,48.6,15.7,65.6
		c2.9,5.5,6.8,10,11.2,13.7c0.7,0.6,1.4,1.2,2.1,1.7c7.5,5.7,15.6,9.1,21.8,11.2c19.6,7.6,44.2,12.2,74.9,12.6L841.9,449.6z"/>
	<polygon class="st0" points="428.3,485.4 443.1,470.3 443.1,470.3 443.1,470.3 440.2,470.3 433.6,470.2 420.3,484.2 418.8,485.7 
		419,470 419,470 413.4,470 411.1,469.9 410.8,498.9 410.7,505.9 410.7,505.9 416.2,505.9 418.6,506 418.6,506 418.6,506 418.7,495 
		422.9,490.7 428.9,499.2 433.9,506.2 433.9,506.2 433.9,506.2 443.4,506.3 443.4,506.3 443.4,506.3 	"/>
	<polygon class="st0" points="359.5,471.1 359.5,471.1 359.5,471.1 354.1,471.4 351.6,471.5 352.9,501.3 353.2,507.4 353.2,507.4 
		353.2,507.4 358.8,507.1 361.1,507 361.1,507 	"/>
	<polygon class="st0" points="397.6,497.1 388.6,485.5 402.9,469.9 402.9,469.9 393.4,470.1 379.1,486.2 378.8,470.5 378.8,470.5 
		373.2,470.6 370.9,470.6 370.9,470.6 370.9,470.6 371.6,506.6 379.5,506.4 379.5,506.4 379.3,495.4 383.4,491 394.8,506.1 
		401.6,505.9 404.3,505.9 404.3,505.9 404.3,505.9 	"/>
	<polygon class="st0" points="530.5,475.8 522.7,475 519.8,504.9 519.2,510.8 527.1,511.5 527.1,511.5 	"/>
	<polygon class="st0" points="342.1,500.6 340,471.9 334.1,472.4 331.5,472.6 331.5,472.6 323.2,488.4 312.7,474 304.2,474.6 
		306.3,502.9 306.8,510.5 314.6,509.9 314.6,509.9 312.8,486.6 323.9,501.1 324,501 324.2,501 333.1,485 333.3,488.2 334.8,508.4 
		340.3,508 342.7,507.8 342.7,507.8 	"/>
	<polygon class="st0" points="478.3,471.7 478.3,471.7 470.8,471.4 451.2,470.6 449.7,506.5 458.3,506.8 477.1,507.6 477.3,500.6 
		471.8,500.4 457.8,499.8 458.2,492.2 463.5,492.5 475.1,492.9 475.2,491.2 475.4,485.9 463.4,485.4 458.4,485.2 458.5,483.9 
		458.7,477.9 464.1,478.1 478,478.7 478,477.2 478.3,471.7 	"/>
	<polygon class="st0" points="499.2,501.9 494,501.5 496,472.9 496,472.9 491,472.5 488.2,472.3 488.2,472.3 488.2,472.3 
		485.6,508.2 485.6,508.2 485.6,508.2 511.4,510 511.5,508.2 511.9,502.8 	"/>
</g>
</svg>
