<?xml version="1.0" encoding="utf-8"?>
<!-- Generator: Adobe Illustrator 24.1.0, SVG Export Plug-In . SVG Version: 6.00 Build 0)  -->
<svg version="1.1" id="Layer_1" xmlns="http://www.w3.org/2000/svg" xmlns:xlink="http://www.w3.org/1999/xlink" x="0px" y="0px"
	 viewBox="0 0 809 405.64" style="enable-background:new 0 0 809 405.64;" xml:space="preserve">
<style type="text/css">
	.st0{enable-background:new    ;}
	.st1{fill:#FFFFFF;}
	.st2{fill:#EF4036;}
</style>
<g id="Group_19" transform="translate(-556 -141.359)">
	<g class="st0">
		<path class="st1" d="M630.09,472.32l12.48,37.83l12.48-37.83h16.61L650.52,527h-16.85l-20.9-54.68H630.09z"/>
		<path class="st1" d="M720.64,472.32v12.48h-28.47v8.58h25.82v12.48h-25.82v8.66h29.25V527h-45.48v-54.68H720.64z"/>
		<path class="st1" d="M761.28,527l-7.25-14.74h-8.58V527h-16.22v-54.68h25.51c14.67,0,23.09,7.02,23.09,19.42
			c0,8.11-3.28,14.04-9.2,17.4L779.69,527H761.28z M745.45,499.78h9.28c4.84,0,7.64-2.65,7.64-7.57c0-4.76-2.81-7.41-7.64-7.41
			h-9.28V499.78z"/>
		<path class="st1" d="M820.87,527l-12.71-19.97L802,513.9V527h-16.22v-54.68H802v21.06l18.33-21.06h18.72l-19.81,22.23L840.29,527
			H820.87z"/>
		<path class="st1" d="M880.23,527l-12.71-19.97l-6.16,6.86V527h-16.22v-54.68h16.22v21.06l18.33-21.06h18.72l-19.81,22.23
			L899.65,527H880.23z"/>
		<path class="st1" d="M959.48,499.62c0,16.07-12.64,28.08-29.8,28.08s-29.8-11.93-29.8-28.08c0-16.07,12.64-27.77,29.8-27.77
			S959.48,483.63,959.48,499.62z M916.5,499.7c0,8.27,6.24,14.43,13.42,14.43s12.95-6.16,12.95-14.43c0-8.27-5.77-14.27-12.95-14.27
			C922.66,485.42,916.5,491.43,916.5,499.7z"/>
		<path class="st1" d="M1000.66,527l-12.71-19.97l-6.16,6.86V527h-16.22v-54.68h16.22v21.06l18.33-21.06h18.72l-19.81,22.23
			l21.06,32.45H1000.66z"/>
		<path class="st1" d="M1061.73,518.26h-22.08l-3.28,8.74h-16.69l23.32-54.68h16.69l22.54,54.68h-17.32L1061.73,518.26z
			 M1057.44,506.41l-6.55-17.86l-6.71,17.86H1057.44z"/>
		<path class="st1" d="M1109.78,514.13c5.38,0,9.21-3.82,9.21-10.22v-31.59h16.22v31.59c0,14.51-9.91,23.79-25.51,23.79
			c-15.68,0-25.9-9.28-25.9-23.79v-31.59h16.22v31.59C1100.03,510.23,1104.32,514.13,1109.78,514.13z"/>
		<path class="st1" d="M1190.59,491.74c0,13.03-8.11,20.52-22.23,20.52h-8.58V527h-16.22v-54.68h24.8
			C1182.48,472.32,1190.59,479.34,1190.59,491.74z M1175.22,492.21c0-4.76-2.81-7.41-7.64-7.41h-7.8v14.98h7.8
			C1172.41,499.78,1175.22,497.12,1175.22,492.21z"/>
		<path class="st1" d="M1243.86,491.74c0,13.03-8.11,20.52-22.23,20.52h-8.58V527h-16.22v-54.68h24.8
			C1235.75,472.32,1243.86,479.34,1243.86,491.74z M1228.5,492.21c0-4.76-2.81-7.41-7.64-7.41h-7.8v14.98h7.8
			C1225.69,499.78,1228.5,497.12,1228.5,492.21z"/>
		<path class="st1" d="M1282.47,518.26h-22.08l-3.28,8.74h-16.69l23.32-54.68h16.69l22.54,54.68h-17.32L1282.47,518.26z
			 M1278.18,506.41l-6.55-17.86l-6.71,17.86H1278.18z"/>
	</g>
	<g class="st0">
		<path class="st2" d="M670.28,361.88v19.92H645.8V446h-25.08v-64.2h-24.36v-19.92H670.28z"/>
		<path class="st2" d="M725.36,432.56H691.4L686.36,446h-25.68l35.88-84.12h25.68L756.92,446h-26.64L725.36,432.56z M718.76,414.32
			l-10.08-27.48l-10.32,27.48H718.76z"/>
		<path class="st2" d="M817.04,446l-19.56-30.72L788,425.84V446h-24.96v-84.12H788v32.4l28.2-32.4H845l-30.48,34.2l32.4,49.92
			H817.04z"/>
		<path class="st2" d="M923.12,361.88v19.2h-43.8v13.2h39.72v19.2h-39.72v13.32h45V446h-69.96v-84.12H923.12z"/>
		<path class="st2" d="M992.96,432.56H959L953.96,446h-25.68l35.88-84.12h25.68l34.68,84.12h-26.64L992.96,432.56z M986.36,414.32
			l-10.08-27.48l-10.32,27.48H986.36z"/>
		<path class="st2" d="M1042.88,361.88l14.4,58.2l14.04-58.2h24.36l14.4,58.2l14.04-58.2h25.56l-27.6,84.12h-25.68l-13.44-53.64
			L1069.28,446h-25.68l-27.36-84.12H1042.88z"/>
		<path class="st2" d="M1205.71,432.56h-33.96l-5.04,13.44h-25.68l35.88-84.12h25.68l34.68,84.12h-26.64L1205.71,432.56z
			 M1199.11,414.32l-10.08-27.48l-10.32,27.48H1199.11z"/>
		<path class="st2" d="M1284.19,419.36V446h-24.96v-26.16l-30.84-57.96h24.96l18.36,34.32l17.88-34.32h24.84L1284.19,419.36z"/>
	</g>
	<g id="DOM-bar-logo-white" transform="translate(731.3 -12.914)">
		<path id="Path_21" class="st1" d="M262.84,226.16c7.92,42.43-15.73,65.38-48.55,68.5c-26.12,2.48-48.6-18.1-53.14-42.32
			c-7.55-40.69,17.05-65.54,49.97-68.65C237.4,181.21,258.35,201.84,262.84,226.16 M226.21,207.07
			c-2.01-10.92-5.38-17.84-13.98-17.04c-20.16,1.9-16.15,65.38-12.45,85.12c2.01,10.82,5.75,14.51,13.83,13.72
			C233.87,286.96,230.23,228.6,226.21,207.07"/>
		<path id="Path_22" class="st1" d="M149.75,211.86v-0.05l0,0c-2.43-8.79-6.71-16.96-12.56-23.96
			c-6.49-6.81-15.46-14.57-25.38-18.95c-42.32-22.22-87.6-12.56-88.18-12.45l6.76,104.59h-0.16l0.84,14.51
			c0,0,1.74,27.07-16.25,33.4c-1,0.32-2.11,0.58-3.17,0.84c-0.63,0.11-1.27,0.21-1.95,0.32l0.26,2.06
			c4.17-0.05,8.13-0.26,11.87-0.58c0.48-0.05,0.9-0.11,1.37-0.16l3.01-0.32c1.9-0.21,3.69-0.48,5.49-0.79
			c0.69-0.11,1.37-0.26,2.06-0.37c5.36-0.99,10.63-2.45,15.73-4.38c4.13-1.33,8.01-3.33,11.5-5.91c0.37-0.32,0.74-0.58,1.11-0.9
			c2.42-2,4.43-4.46,5.91-7.23c3.54-5.96,5.7-13.77,6.97-22.11c3.69-24.27-0.26-52.88-0.26-52.88l-3.06-27.33l-0.05-0.69l-0.11-2.06
			c-0.11-11.5,5.96-14.2,11.72-14.46c18.21-0.84,25.54,10.18,29.08,31.4v0.05c0.32,2.22,0.58,4.38,0.84,6.44
			c6.12,48.92-5.12,65.59-5.12,65.59c-3.18,6.49-8.11,11.96-14.25,15.78l0,0c-6.91,4.27-15.46,5.96-20.9,6.65
			c-2.22,0.26-3.96,0.37-4.8,0.42h-0.63v1.9c0.9,0.05,1.79,0.11,2.64,0.16c9.34,0.37,18.7-0.25,27.92-1.85
			c36.41-5.59,51.19-25.49,54.04-48.81C152.75,244.09,152.6,221.98,149.75,211.86"/>
		<path id="Path_23" class="st1" d="M448.85,310.12c-0.66-0.05-1.31-0.16-1.95-0.32c-1.05-0.26-2.16-0.53-3.17-0.84
			c-17.99-6.33-16.25-33.4-16.25-33.4l0.84-14.51h-0.16l6.81-104.96c0,0-9.97-3.17-26.6-0.58c-2.72,0.32-5.4,0.86-8.02,1.64
			c-0.47,0.11-0.9,0.21-1.37,0.32v0.11c-0.26,0.11-0.53,0.16-0.79,0.26l0,0c-20,5.33-31.45,29.29-36.04,41.21
			c-1.58,4.12-2.38,6.86-2.38,6.86c0.54-2.68,0.82-5.4,0.84-8.13c0.05-4.96-0.84-11.24-4.54-15.88c-2.31-2.76-5.4-4.75-8.86-5.7
			c-1.45-0.42-2.93-0.72-4.43-0.9c-1.81-0.18-3.63-0.18-5.43,0c-2.54,0.24-5.04,0.79-7.44,1.64c-4.47,2.19-8.51,5.18-11.93,8.81
			c-4.48,4.01-6.39,8.71-8.86,13.46c1.9-8.5-1.79-11.35-1.79-11.35c-1.19-1.22-2.79-1.95-4.48-2.06c-1.77-0.22-3.56-0.23-5.33-0.05
			l-20.53,1.43l-3.11,0.16v0.05l0,0l-1.16,30.92c-0.16,0.95-0.58,30.92,0.37,32.67c2.9,16.15,12.03,30.34,30.71,38.73
			c10.82,4.86,24.85,7.76,42.8,8.02l-0.32-2.64c-15.04-3.33-24.43-11.29-29.82-21.95l0,0c0,0-2.85-4.22-4.91-14.67
			c-1.9-9.76-3.17-24.91-0.74-47.12c1.9-10.03,4.7-13.93,8.65-15.2c2.48-0.42,7.39,0,8.34,9.92c0.05,1.64,0.05,3.43,0,5.43
			c-1.27,23.59,3.91,36.62,10.08,43.85c0.69,1.11,6.65,9.71,25.07,10.76c-6.6-12.93-1.16-37.36,1.32-46.86
			c1.37-5.59,2.74-9.92,3.38-11.71c0.74-2.38,1.48-4.27,2.06-5.65c0.16-0.32,0.26-0.58,0.42-0.9c0.57-1.25,1.29-2.42,2.16-3.48v0.05
			c1.01-1.34,2.41-2.33,4.01-2.85c0.05,0,0.11-0.05,0.16-0.05c1.37-0.23,2.78-0.01,4.01,0.63h0.05c0.06,0.07,0.13,0.12,0.21,0.16
			c2.11,1.53,3.64,4.91,3.64,10.29c0,0.95-0.05,1.95-0.11,3.01l-0.42,7.86l0,0c-1.68,13.39-2.21,26.89-1.58,40.37
			c0.74,12.67,2.96,25.65,8.28,34.62c1.48,2.77,3.49,5.23,5.91,7.23c0.37,0.32,0.74,0.63,1.11,0.9c3.49,2.57,7.37,4.57,11.5,5.91
			c10.34,4.01,23.32,6.44,39.53,6.65L448.85,310.12z"/>
		<path id="Path_24" class="st1" d="M230.6,329.01l7.81-7.97h-1.53l-3.48-0.05l-7.02,7.39l-0.79,0.79l0.11-8.29h-2.95l-1.21-0.05
			l-0.16,15.3l-0.05,3.7h2.9l1.27,0.05l0,0l0.05-5.8l2.22-2.27l3.17,4.48l2.64,3.69l0,0l5.01,0.05l0,0L230.6,329.01z"/>
		<path id="Path_25" class="st1" d="M194.29,321.46L194.29,321.46l-2.85,0.16l-1.32,0.05l0.69,15.73l0.16,3.22l0,0l2.95-0.16
			l1.21-0.05l0,0L194.29,321.46z"/>
		<path id="Path_26" class="st1" d="M214.4,335.18l-4.75-6.12l7.55-8.23l0,0l-5.01,0.11l-7.55,8.5l-0.16-8.29l0,0l-2.95,0.05h-1.22
			l0.37,19l4.17-0.11l0,0l-0.11-5.8l2.16-2.32l6.02,7.95l3.59-0.11h1.42L214.4,335.18z"/>
		<path id="Path_27" class="st1" d="M284.53,323.94l-4.12-0.42l-1.53,15.78l-0.32,3.11l4.17,0.37l0,0L284.53,323.94z"/>
		<path id="Path_28" class="st1" d="M185.11,337.03L184,321.89l-3.11,0.26l-1.37,0.11l0,0l-4.38,8.34l-5.54-7.6l-4.48,0.32
			l1.11,14.93l0.26,4.01l4.12-0.32l0,0l-0.95-12.3l5.86,7.65l0.05-0.05h0.11l4.7-8.44l0.11,1.69l0.79,10.66l2.9-0.21l1.27-0.11l0,0
			L185.11,337.03z"/>
		<path id="Path_29" class="st1" d="M256.98,321.78L256.98,321.78l-3.96-0.16l-10.34-0.42l-0.79,18.95l4.54,0.16l9.92,0.42
			l0.11-3.69l-2.9-0.11l-7.39-0.32l0.21-4.01l2.8,0.16l6.12,0.21l0.05-0.9l0.11-2.8l-6.33-0.26l-2.64-0.11l0.05-0.69l0.11-3.17
			l2.85,0.11l7.33,0.32v-0.79L256.98,321.78z"/>
		<path id="Path_30" class="st1" d="M268.01,337.72l-2.74-0.21l1.05-15.09l0,0l-2.64-0.21l-1.48-0.11l0,0l-1.37,18.94l0,0
			l13.61,0.95l0.05-0.95l0.21-2.85L268.01,337.72z"/>
	</g>
</g>
</svg>
