<svg xmlns="http://www.w3.org/2000/svg" viewBox="0 0 350.27 179.72"><defs><style>.a{fill:#1a171b;}</style></defs><path class="a" d="M201.92,82.88c6.3,33.83-12.53,52.16-38.71,54.63-20.84,2-38.78-14.45-42.37-33.75-6-32.44,13.57-52.27,39.82-54.74,21-2,37.66,14.48,41.26,33.86M172.7,67.63c-1.62-8.7-4.28-14.23-11.16-13.58-16.08,1.51-12.88,52.16-9.95,67.88,1.6,8.63,4.61,11.56,11,10.95,16.16-1.52,13.27-48.07,10.07-65.25"/><path class="a" d="M111.71,71.48s0,0,0-.06h0a50.43,50.43,0,0,0-10-19.09C96.5,46.89,89.31,40.7,81.43,37.23c-33.74-17.71-69.87-10-70.31-9.94l5.4,83.41-.12,0,.67,11.59s1.39,21.61-13,26.66c-.81.26-1.67.48-2.53.7-.51.09-1,.18-1.56.23l.23,1.66q5-.06,9.46-.47l1.09-.11c.8-.08,1.61-.16,2.39-.26,1.49-.18,3-.39,4.36-.63l1.65-.31a70.57,70.57,0,0,0,12.56-3.52,31.56,31.56,0,0,0,9.18-4.71q.45-.34.9-.72A19.57,19.57,0,0,0,46.54,135c2.83-4.78,4.56-11,5.57-17.63,3-19.37-.23-42.17-.23-42.17L49.46,53.43l0-.55-.07-1.63c-.08-9.16,4.75-11.31,9.33-11.52,14.52-.68,20.37,8.12,23.19,25a.09.09,0,0,0,0,0c.26,1.76.48,3.47.69,5.14,4.82,39-4.15,52.29-4.15,52.29a30.83,30.83,0,0,1-11.37,12.6h0c-5.53,3.42-12.32,4.77-16.66,5.31-1.79.22-3.16.3-3.85.33l-.52,0V142c.72,0,1.42.08,2.12.11a106.14,106.14,0,0,0,22.24-1.46c29-4.48,40.82-20.34,43.09-38.94.62-4.5.49-22.14-1.77-30.22"/><path class="a" d="M350.27,149.86c-.54-.06-1-.14-1.56-.23-.86-.22-1.72-.44-2.53-.7-14.37-5.05-13-26.66-13-26.66l.67-11.59-.12,0L339.17,27s-8-2.54-21.2-.45a38.75,38.75,0,0,0-6.42,1.31c-.37.09-.72.16-1.09.26v.08l-.65.21h0c-15.94,4.26-25.08,23.34-28.73,32.87-1.27,3.3-1.88,5.47-1.88,5.47a32.9,32.9,0,0,0,.66-6.48c0-4-.66-8.95-3.6-12.69A14.17,14.17,0,0,0,269.22,43a18.44,18.44,0,0,0-3.52-.7,21.79,21.79,0,0,0-4.35,0,25.28,25.28,0,0,0-5.94,1.33,33.57,33.57,0,0,0-9.51,7c-3.57,3.18-5.11,6.95-7.07,10.72,1.54-6.79-1.45-9-1.45-9a5.4,5.4,0,0,0-3.56-1.64,18.11,18.11,0,0,0-4.27,0L213.2,51.79l-2.47.13v0h0l-.95,24.67c-.13.75-.45,24.66.29,26.05,2.33,12.89,9.59,24.19,24.48,30.88,8.64,3.87,19.84,6.2,34.14,6.37l-.25-2.11c-12-2.67-19.5-9-23.77-17.53h0s-2.26-3.38-3.9-11.68c-1.54-7.77-2.53-19.86-.59-37.58,1.5-8,3.74-11.1,6.9-12.11,2-.35,5.88,0,6.64,7.9,0,1.32,0,2.74,0,4.32-1,18.79,3.1,29.19,8.06,35,.56.9,5.28,7.74,20,8.58-5.28-10.33-.95-29.81,1.05-37.36,1.09-4.46,2.19-7.91,2.67-9.35.6-1.88,1.17-3.39,1.63-4.52.11-.24.22-.47.32-.7A12.35,12.35,0,0,1,289.17,60V60a6.64,6.64,0,0,1,3.22-2.29l.13,0a4.76,4.76,0,0,1,3.18.52h0l.16.11c1.68,1.23,2.89,3.93,2.92,8.18q0,1.13-.09,2.4l-.33,6.29h0a185.52,185.52,0,0,0-1.25,32.2c.59,10.1,2.37,20.47,6.59,27.6a19.42,19.42,0,0,0,4.72,5.77q.44.38.9.72a31.87,31.87,0,0,0,9.18,4.72c8.25,3.21,18.61,5.13,31.51,5.29Z"/><path class="a" d="M218.92,16.41l-1.13-9.23,5.13-.63c3.33-.41,5.59.93,6,3.91v.09c.32,2.59-1.38,4.81-4.7,5.22Zm-4.81,15.8,6.65-.82-1.11-9.06,5-.62c6.77-.84,11.77-5.13,10.91-12.12V9.5c-.76-6.17-5.65-9.91-12.85-9L210.4,2ZM191.19,28a9.26,9.26,0,0,1-9.6-9.19V18.7c-.21-5.21,3.35-9.62,8.74-9.84a9.26,9.26,0,0,1,9.59,9.19v.09c.21,5.21-3.36,9.62-8.74,9.84m.16,6.17c9.38-.38,15.92-7.74,15.57-16.38v-.09c-.35-8.65-7.37-15.37-16.76-15s-15.92,7.74-15.57,16.38v.09c.35,8.65,7.36,15.37,16.75,15m-48.48-1.26,6.69.31.57-12.2,12.33.57-.57,12.21,6.69.31L170,3.68l-6.69-.31-.56,12-12.33-.57.56-12-6.69-.32Zm-17.61-1.58c6.52.84,11.52-1.93,12.3-7.93V23.3c.68-5.26-2.49-7.91-8.4-10.3-5-2-6.26-2.82-6-4.81V8.11c.19-1.47,1.68-2.46,4.22-2.13s5,1.79,7.46,4L139,5.41A17.58,17.58,0,0,0,128.25.13c-6.17-.8-11,2.25-11.75,7.73v.08c-.77,6,2.93,8.19,8.81,10.53,4.88,1.94,5.81,2.94,5.59,4.62v.09c-.23,1.77-2,2.63-4.73,2.28-3.45-.45-6.11-2.24-8.54-4.83l-4.53,4.19a19.39,19.39,0,0,0,12.18,6.49"/><path class="a" d="M246,176.57a4.59,4.59,0,0,1-3.72-5.46v-.05a4.52,4.52,0,0,1,5.27-3.87,4.59,4.59,0,0,1,3.71,5.46v0a4.53,4.53,0,0,1-5.27,3.88m-.57,3a7.82,7.82,0,0,0,9.27-6.35v-.05a7.75,7.75,0,0,0-6.59-9,7.83,7.83,0,0,0-9.27,6.35v0a7.76,7.76,0,0,0,6.59,9m-16.88-2.46a9.79,9.79,0,0,0,6.7-1.62L236,169l-6.53-.77-.34,2.85,3.33.4-.26,2.14a5.19,5.19,0,0,1-3.22.53,4.53,4.53,0,0,1-4-5.31v0a4.54,4.54,0,0,1,4.87-4.16,5.62,5.62,0,0,1,3.75,2l2.38-2.26a8.33,8.33,0,0,0-5.66-2.77,7.77,7.77,0,0,0-8.8,6.83v.05a7.58,7.58,0,0,0,7,8.67M204,171.75a4.59,4.59,0,0,1-4.25-5.05v0a4.53,4.53,0,0,1,4.84-4.4,4.61,4.61,0,0,1,4.26,5.06v0a4.53,4.53,0,0,1-4.85,4.4m-.25,3.06a7.83,7.83,0,0,0,8.57-7.27v0a7.75,7.75,0,0,0-7.48-8.3,7.83,7.83,0,0,0-8.57,7.28v0a7.75,7.75,0,0,0,7.48,8.3m-17.21-1.07,3.33.11.38-12.06,4.6.14.1-3.06-12.53-.4-.1,3.06,4.6.15Zm-21.64-.17,3.33,0-.13-12.06,4.6-.05,0-3.07-12.54.14,0,3.07,4.61-.05Zm-17.76.52,3.32-.13-.23-5.85,7.22-.29-.12-3-7.22.28-.12-3.22,8.18-.32-.12-3-11.51.45Zm-12.89-5.56,1.67-5,2.35,4.76Zm-5.52,6.73,3.39-.23,1.15-3.48,6.38-.44,1.61,3.29,3.48-.23-7.51-14.77-3.07.21Zm-11.81-6.62-.44-4.32,3.29-.34c1.61-.16,2.67.46,2.82,1.88v0c.14,1.27-.7,2.22-2.31,2.39Zm-2.51,8.09,3.31-.34-.5-4.82,2.61-.27,3.72,4.49,3.87-.4-4.23-5a4.7,4.7,0,0,0,2.74-5v0a4.75,4.75,0,0,0-1.65-3.31,6,6,0,0,0-4.54-1.08l-6.88.71Zm-8.82,1.41a7.73,7.73,0,0,0,5.77-3.53l-2.39-1.83a5.48,5.48,0,0,1-3.7,2.3,4.49,4.49,0,0,1-5-4.1v0a4.48,4.48,0,0,1,3.7-5.27,5.57,5.57,0,0,1,4.07,1.16l1.76-2.71a7.77,7.77,0,0,0-6.23-1.49,7.69,7.69,0,0,0-6.74,8.84v0a7.65,7.65,0,0,0,8.76,6.64"/><path class="a" d="M246,176.57a4.59,4.59,0,0,1-3.72-5.46v-.05a4.52,4.52,0,0,1,5.27-3.87,4.59,4.59,0,0,1,3.71,5.46v0a4.53,4.53,0,0,1-5.27,3.88m-.57,3a7.82,7.82,0,0,0,9.27-6.35v-.05a7.75,7.75,0,0,0-6.59-9,7.83,7.83,0,0,0-9.27,6.35v0a7.76,7.76,0,0,0,6.59,9m-16.88-2.46a9.79,9.79,0,0,0,6.7-1.62L236,169l-6.53-.77-.34,2.85,3.33.4-.26,2.14a5.19,5.19,0,0,1-3.22.53,4.53,4.53,0,0,1-4-5.31v0a4.54,4.54,0,0,1,4.87-4.16,5.62,5.62,0,0,1,3.75,2l2.38-2.26a8.33,8.33,0,0,0-5.66-2.77,7.77,7.77,0,0,0-8.8,6.83v.05a7.58,7.58,0,0,0,7,8.67M204,171.75a4.59,4.59,0,0,1-4.25-5.05v0a4.53,4.53,0,0,1,4.84-4.4,4.61,4.61,0,0,1,4.26,5.06v0a4.53,4.53,0,0,1-4.85,4.4m-.25,3.06a7.83,7.83,0,0,0,8.57-7.27v0a7.75,7.75,0,0,0-7.48-8.3,7.83,7.83,0,0,0-8.57,7.28v0a7.75,7.75,0,0,0,7.48,8.3m-17.21-1.07,3.33.11.38-12.06,4.6.14.1-3.06-12.53-.4-.1,3.06,4.6.15Zm-21.64-.17,3.33,0-.13-12.06,4.6-.05,0-3.07-12.54.14,0,3.07,4.61-.05Zm-17.76.52,3.32-.13-.23-5.85,7.22-.29-.12-3-7.22.28-.12-3.22,8.18-.32-.12-3-11.51.45Zm-12.89-5.56,1.67-5,2.35,4.76Zm-5.52,6.73,3.39-.23,1.15-3.48,6.38-.44,1.61,3.29,3.48-.23-7.51-14.77-3.07.21Zm-11.81-6.62-.44-4.32,3.29-.34c1.61-.16,2.67.46,2.82,1.88v0c.14,1.27-.7,2.22-2.31,2.39Zm-2.51,8.09,3.31-.34-.5-4.82,2.61-.27,3.72,4.49,3.87-.4-4.23-5a4.7,4.7,0,0,0,2.74-5v0a4.75,4.75,0,0,0-1.65-3.31,6,6,0,0,0-4.54-1.08l-6.88.71Zm-8.82,1.41a7.73,7.73,0,0,0,5.77-3.53l-2.39-1.83a5.48,5.48,0,0,1-3.7,2.3,4.49,4.49,0,0,1-5-4.1v0a4.48,4.48,0,0,1,3.7-5.27,5.57,5.57,0,0,1,4.07,1.16l1.76-2.71a7.77,7.77,0,0,0-6.23-1.49,7.69,7.69,0,0,0-6.74,8.84v0a7.65,7.65,0,0,0,8.76,6.64"/></svg>