<?xml version="1.0" encoding="utf-8"?><!-- Generator: Adobe Illustrator 24.1.2, SVG Export Plug-In . SVG Version: 6.00 Build 0)  --><svg version="1.1" id="Layer_1" xmlns="http://www.w3.org/2000/svg" xmlns:xlink="http://www.w3.org/1999/xlink" x="0px" y="0px"	 viewBox="0 0 48 48" style="enable-background:new 0 0 48 48;" xml:space="preserve"><style type="text/css">	.st0{fill:#FFFFFF;}	.st1{fill:none;stroke:#EF4036;stroke-width:2;stroke-miterlimit:10;}</style><g>	<polygon class="st0" points="42.4,21.5 41.4,16.9 39.1,13.7 38.4,1.2 34.8,0.8 33.8,13.1 31.9,16.2 29.6,17.8 29.1,17.3 29,16.9 		26.6,13.7 25.9,2.2 25.6,2.1 25.6,1.7 24,1.5 22.3,0.8 21.4,13.1 19.5,16.2 17.1,17.8 14.6,13.5 14.3,0.8 10,1.2 8.8,14.4 7,17.2 		6,21.2 30,21.5 30,21.4 	"/>	<g id="Layer_1_1_">		<path id="Path_14" class="st1" d="M6,21.2v-1.3c0-1.1,0.4-2.1,1-3l2-2.7L9.9,2.1c0-0.5,0.5-0.9,1-0.9h2.1c0.5,0,1,0.4,1,0.9			L15,14.2l2,2.7c0.6,0.9,1,1.9,1,3v1.3"/>		<path id="Path_15" class="st1" d="M30,21.2v-1.3c0-1.1-0.3-2.1-1-3l-2-2.7l-0.4-5l-0.5-7.1c0-0.5-0.5-0.9-1-0.9h-2.1			c-0.5,0-1,0.4-1,0.9l-0.5,7.1l-0.4,5l-2,2.7c-0.7,0.9-1,1.9-1,3v1.3"/>		<path id="Path_16" class="st1" d="M30,21.2v-1.3c0-1.1,0.4-2.1,1-3l2-2.7l0.9-11.7c0.1-0.7,0.7-1.3,1.4-1.3h1.4			c0.7,0,1.3,0.6,1.4,1.3L39,14.2l2,2.7c0.6,0.9,1,1.9,1,3v1.3"/>		<line id="Line_37" class="st1" x1="1" y1="21.2" x2="47" y2="21.2"/>		<line id="Line_38" class="st1" x1="21.7" y1="5.2" x2="14.3" y2="5.2"/>		<line id="Line_39" class="st1" x1="33.7" y1="5.2" x2="26.3" y2="5.2"/>		<line id="Line_40" class="st1" x1="7" y1="17.2" x2="3" y2="15.2"/>		<path id="Path_17" class="st1" d="M38.3,5.2H45v10l2,6v26H1v-26l2-6v-10h6.7"/>		<line id="Line_41" class="st1" x1="41" y1="17.2" x2="45" y2="15.2"/>		<line id="Line_42" class="st1" x1="15" y1="14.2" x2="12" y2="14.2"/>		<line id="Line_43" class="st1" x1="24" y1="14.2" x2="27" y2="14.2"/>		<line id="Line_44" class="st1" x1="36" y1="14.2" x2="39" y2="14.2"/>		<line id="Line_45" class="st1" x1="21.4" y1="9.2" x2="14.6" y2="9.2"/>		<line id="Line_46" class="st1" x1="33.4" y1="9.2" x2="26.6" y2="9.2"/>		<circle id="Ellipse_5" class="st1" cx="24" cy="34.2" r="8"/>		<line id="Line_47" class="st1" x1="35" y1="34.2" x2="41" y2="34.2"/>		<line id="Line_48" class="st1" x1="7" y1="34.2" x2="13" y2="34.2"/>	</g></g></svg>